<svg width="24" height="14" viewBox="0 0 24 14" fill="none" xmlns="http://www.w3.org/2000/svg">
<path d="M21 11.5C21 12.3284 20.3284 13 19.5 13H16.5C15.6716 13 15 12.3284 15 11.5V11.0355C15 10.4636 14.5364 10 13.9645 10C13.5596 10 13.198 10.2399 12.9929 10.5891C11.7774 12.6582 9.47254 14 7 14C3.1 14 0 10.9 0 7C0 3.1 3.1 0 7 0C8.25774 0 9.47207 0.347194 10.5217 0.960715C12.7219 2.24673 14.9339 4 17.4824 4H21C22.6569 4 24 5.34315 24 7V8.5C24 9.32843 23.3284 10 22.5 10C21.6716 10 21 10.6716 21 11.5ZM17 10C17 10.5523 17.4477 11 18 11C18.5523 11 19 10.5523 19 10V9.5C19 8.67157 19.6716 8 20.5 8H21C21.5523 8 22 7.55228 22 7C22 6.44772 21.5523 6 21 6H12.628C12.1971 6 11.8184 5.71434 11.7 5.3C11 3.3 9.1 2 7 2C4.2 2 2 4.2 2 7C2 9.8 4.2 12 7 12C9.1 12 11 10.7 11.7 8.7C11.8184 8.28566 12.1971 8 12.628 8H15.5C16.3284 8 17 8.67157 17 9.5V10ZM7 10C5.3 10 4 8.7 4 7C4 5.3 5.3 4 7 4C8.7 4 10 5.3 10 7C10 8.7 8.7 10 7 10ZM7 6C6.4 6 6 6.4 6 7C6 7.6 6.4 8 7 8C7.6 8 8 7.6 8 7C8 6.4 7.6 6 7 6Z" fill="black"/>
</svg>
