<svg width="20" height="16" viewBox="0 0 20 16" fill="none" xmlns="http://www.w3.org/2000/svg">
<path d="M20 2C20 0.9 19.1 0 18 0H2C0.9 0 0 0.9 0 2V14C0 15.1 0.9 16 2 16H18C19.1 16 20 15.1 20 14V2ZM10 2C12.3051 2 13.1708 5.01828 11.216 6.23999C10.472 6.70499 9.52798 6.70499 8.78399 6.23999C6.82924 5.01828 7.69487 2 10 2ZM18 10.434C18 12.4034 16.4034 14 14.434 14H5.56602C3.59656 14 2 12.4034 2 10.434C2 7.6331 5.08087 5.92554 7.45601 7.41L7.94175 7.71359C9.20105 8.50066 10.7989 8.50066 12.0583 7.71359L12.544 7.41C14.9191 5.92554 18 7.6331 18 10.434Z" fill="black"/>
</svg>
