<svg width="67" height="48" viewBox="0 0 67 48" fill="none" xmlns="http://www.w3.org/2000/svg">
<path d="M1.128 45V36.6H4.584C5.328 36.6 5.964 36.72 6.492 36.96C7.028 37.2 7.44 37.544 7.728 37.992C8.016 38.44 8.16 38.972 8.16 39.588C8.16 40.204 8.016 40.736 7.728 41.184C7.44 41.624 7.028 41.964 6.492 42.204C5.964 42.436 5.328 42.552 4.584 42.552H1.992L2.688 41.844V45H1.128ZM6.624 45L4.5 41.952H6.168L8.304 45H6.624ZM2.688 42.012L1.992 41.268H4.512C5.2 41.268 5.716 41.12 6.06 40.824C6.412 40.528 6.588 40.116 6.588 39.588C6.588 39.052 6.412 38.64 6.06 38.352C5.716 38.064 5.2 37.92 4.512 37.92H1.992L2.688 37.152V42.012ZM12.5453 40.092H16.7213V41.376H12.5453V40.092ZM12.6653 43.692H17.4053V45H11.1053V36.6H17.2373V37.908H12.6653V43.692ZM20.3444 45V36.6H23.8004C24.5444 36.6 25.1804 36.72 25.7084 36.96C26.2444 37.2 26.6564 37.544 26.9444 37.992C27.2324 38.44 27.3764 38.972 27.3764 39.588C27.3764 40.204 27.2324 40.736 26.9444 41.184C26.6564 41.632 26.2444 41.976 25.7084 42.216C25.1804 42.456 24.5444 42.576 23.8004 42.576H21.2084L21.9044 41.844V45H20.3444ZM21.9044 42.012L21.2084 41.256H23.7284C24.4164 41.256 24.9324 41.112 25.2764 40.824C25.6284 40.528 25.8044 40.116 25.8044 39.588C25.8044 39.052 25.6284 38.64 25.2764 38.352C24.9324 38.064 24.4164 37.92 23.7284 37.92H21.2084L21.9044 37.152V42.012ZM34.1874 45.12C33.5314 45.12 32.9274 45.012 32.3754 44.796C31.8234 44.58 31.3434 44.28 30.9354 43.896C30.5274 43.504 30.2114 43.048 29.9874 42.528C29.7634 42 29.6514 41.424 29.6514 40.8C29.6514 40.176 29.7634 39.604 29.9874 39.084C30.2114 38.556 30.5274 38.1 30.9354 37.716C31.3434 37.324 31.8234 37.02 32.3754 36.804C32.9274 36.588 33.5274 36.48 34.1754 36.48C34.8314 36.48 35.4314 36.588 35.9754 36.804C36.5274 37.02 37.0074 37.324 37.4154 37.716C37.8234 38.1 38.1394 38.556 38.3634 39.084C38.5874 39.604 38.6994 40.176 38.6994 40.8C38.6994 41.424 38.5874 42 38.3634 42.528C38.1394 43.056 37.8234 43.512 37.4154 43.896C37.0074 44.28 36.5274 44.58 35.9754 44.796C35.4314 45.012 34.8354 45.12 34.1874 45.12ZM34.1754 43.752C34.5994 43.752 34.9914 43.68 35.3514 43.536C35.7114 43.392 36.0234 43.188 36.2874 42.924C36.5514 42.652 36.7554 42.34 36.8994 41.988C37.0514 41.628 37.1274 41.232 37.1274 40.8C37.1274 40.368 37.0514 39.976 36.8994 39.624C36.7554 39.264 36.5514 38.952 36.2874 38.688C36.0234 38.416 35.7114 38.208 35.3514 38.064C34.9914 37.92 34.5994 37.848 34.1754 37.848C33.7514 37.848 33.3594 37.92 32.9994 38.064C32.6474 38.208 32.3354 38.416 32.0634 38.688C31.7994 38.952 31.5914 39.264 31.4394 39.624C31.2954 39.976 31.2234 40.368 31.2234 40.8C31.2234 41.224 31.2954 41.616 31.4394 41.976C31.5914 42.336 31.7994 42.652 32.0634 42.924C32.3274 43.188 32.6394 43.392 32.9994 43.536C33.3594 43.68 33.7514 43.752 34.1754 43.752Z" fill="black"/>
<path d="M43.257 45V37.92H40.473V36.6H47.601V37.92H44.817V45H43.257ZM51.4118 40.092H55.5878V41.376H51.4118V40.092ZM51.5318 43.692H56.2718V45H49.9718V36.6H56.1038V37.908H51.5318V43.692ZM63.0988 45.12C62.4588 45.12 61.8628 45.016 61.3108 44.808C60.7668 44.592 60.2908 44.292 59.8828 43.908C59.4828 43.516 59.1708 43.056 58.9468 42.528C58.7228 42 58.6108 41.424 58.6108 40.8C58.6108 40.176 58.7228 39.6 58.9468 39.072C59.1708 38.544 59.4868 38.088 59.8948 37.704C60.3028 37.312 60.7788 37.012 61.3228 36.804C61.8668 36.588 62.4628 36.48 63.1108 36.48C63.7988 36.48 64.4268 36.6 64.9948 36.84C65.5628 37.072 66.0428 37.42 66.4348 37.884L65.4268 38.832C65.1228 38.504 64.7828 38.26 64.4068 38.1C64.0308 37.932 63.6228 37.848 63.1828 37.848C62.7428 37.848 62.3388 37.92 61.9708 38.064C61.6108 38.208 61.2948 38.412 61.0228 38.676C60.7588 38.94 60.5508 39.252 60.3988 39.612C60.2548 39.972 60.1828 40.368 60.1828 40.8C60.1828 41.232 60.2548 41.628 60.3988 41.988C60.5508 42.348 60.7588 42.66 61.0228 42.924C61.2948 43.188 61.6108 43.392 61.9708 43.536C62.3388 43.68 62.7428 43.752 63.1828 43.752C63.6228 43.752 64.0308 43.672 64.4068 43.512C64.7828 43.344 65.1228 43.092 65.4268 42.756L66.4348 43.716C66.0428 44.172 65.5628 44.52 64.9948 44.76C64.4268 45 63.7948 45.12 63.0988 45.12Z" fill="#158ACC"/>
<path d="M31.4675 10.5313L25.4475 14.4613C23.5175 15.7213 23.5175 18.5413 25.4475 19.8013L31.4675 23.7313C32.5475 24.4413 34.3275 24.4413 35.4075 23.7313L41.3975 19.8013C43.3175 18.5413 43.3175 15.7313 41.3975 14.4713L35.4075 10.5413C34.3275 9.82126 32.5475 9.82126 31.4675 10.5313Z" stroke="black" stroke-width="1.5" stroke-linecap="round" stroke-linejoin="round"/>
<path d="M27.0475 21.0813L27.0375 25.7713C27.0375 27.0413 28.0175 28.4013 29.2175 28.8013L32.4075 29.8613C32.9575 30.0413 33.8675 30.0413 34.4275 29.8613L37.6175 28.8013C38.8175 28.4013 39.7975 27.0413 39.7975 25.7713V21.1313M42.8175 23.0013V17.0013" stroke="black" stroke-width="1.5" stroke-linecap="round" stroke-linejoin="round"/>
<path d="M51.1865 31.5C53.0297 28.3076 54 24.6863 54 21C54 17.3137 53.0297 13.6924 51.1865 10.5C49.3434 7.3076 46.6924 4.6566 43.5 2.81347C40.3076 0.970331 36.6863 -3.80851e-07 33 0C29.3137 3.80851e-07 25.6924 0.970332 22.5 2.81347C19.3076 4.6566 16.6566 7.3076 14.8135 10.5C12.9703 13.6924 12 17.3137 12 21C12 24.6863 12.9703 28.3076 14.8135 31.5L17.5414 29.925C15.9748 27.2115 15.15 24.1333 15.15 21C15.15 17.8667 15.9748 14.7885 17.5414 12.075C19.1081 9.36146 21.3615 7.10811 24.075 5.54145C26.7885 3.97478 29.8667 3.15 33 3.15C36.1333 3.15 39.2115 3.97478 41.925 5.54145C44.6385 7.10811 46.8919 9.36146 48.4586 12.075C50.0252 14.7885 50.85 17.8667 50.85 21C50.85 24.1333 50.0252 27.2115 48.4586 29.925L51.1865 31.5Z" fill="black"/>
<path d="M48.5885 30C50.1683 27.2637 51 24.1597 51 21C51 17.8403 50.1683 14.7363 48.5885 12C47.0086 9.26365 44.7363 6.99137 42 5.41154C39.2637 3.83171 36.1597 3 33 3C29.8403 3 26.7363 3.83171 24 5.41154C21.2637 6.99137 18.9914 9.26366 17.4115 12C15.8317 14.7363 15 17.8403 15 21C15 24.1597 15.8317 27.2637 17.4115 30L19.7498 28.65C18.407 26.3241 17.7 23.6857 17.7 21C17.7 18.3143 18.407 15.6759 19.7498 13.35C21.0927 11.0241 23.0241 9.09267 25.35 7.74981C27.6759 6.40696 30.3143 5.7 33 5.7C35.6857 5.7 38.3241 6.40696 40.65 7.74981C42.9759 9.09267 44.9073 11.0241 46.2502 13.35C47.593 15.6759 48.3 18.3143 48.3 21C48.3 23.6857 47.593 26.3241 46.2502 28.65L48.5885 30Z" fill="#158ACC"/>
</svg>
